<svg width="10" height="18" viewBox="0 0 10 18" fill="none" xmlns="http://www.w3.org/2000/svg">
<g clip-path="url(#clip0_148_27)">
<path fill-rule="evenodd" clip-rule="evenodd" d="M8.39225 0.03823C8.32318 0.0639552 8.19954 0.124988 8.11749 0.173828C8.03481 0.223046 6.2356 1.99774 4.08175 4.15454C0.925661 7.31503 0.176882 8.08198 0.0976116 8.23537C0.00855227 8.40771 0 8.45587 0 8.7849C0 9.12713 0.00573567 9.15611 0.112312 9.35251C0.205561 9.52437 0.886747 10.221 4.1308 13.4623C7.30482 16.6336 8.07239 17.3834 8.22588 17.4627C8.39823 17.5518 8.44638 17.5603 8.77542 17.5603C9.08872 17.5603 9.15858 17.5493 9.30778 17.476C9.54714 17.3586 9.77547 17.1343 9.89411 16.9002C9.9854 16.72 9.9947 16.6699 9.9947 16.3582C9.9947 15.7563 10.2931 16.1015 6.40932 12.2109L2.98924 8.7849L6.40932 5.35888C10.2931 1.4683 9.9947 1.81351 9.9947 1.21159C9.9947 0.916528 9.98282 0.843954 9.91042 0.696404C9.79326 0.457664 9.56885 0.228748 9.33691 0.111387C9.17126 0.0275827 9.09209 0.0104783 8.82924 0.00175444C8.62663 -0.00497739 8.47396 0.007765 8.39225 0.03823Z" fill="#7F7F7F"/>
</g>
<defs>
<clipPath id="clip0_148_27">
<rect width="10" height="18" fill="white"/>
</clipPath>
</defs>
</svg>
