<svg width="25" height="26" viewBox="0 0 25 26" fill="none" xmlns="http://www.w3.org/2000/svg">
<path fill-rule="evenodd" clip-rule="evenodd" d="M1.31492 0.0555714C0.508196 0.283656 0.0101093 0.944142 0.00384515 1.79413C-0.00241898 2.64746 -0.271308 2.33531 5.11029 7.72164L9.89205 12.5076L5.11029 17.2935C-0.271308 22.6798 -0.00241898 22.3677 0.00384515 23.221C0.00928968 23.9543 0.36453 24.5246 1.01389 24.8423C1.28337 24.9742 1.42393 25.0039 1.78438 25.005C2.64128 25.0079 2.32819 25.2776 7.71365 19.8968L12.4996 15.1151L17.2855 19.8968C22.6709 25.2776 22.3579 25.0079 23.2148 25.005C23.5752 25.0039 23.7158 24.9742 23.9852 24.8423C24.6346 24.5246 24.9898 23.9543 24.9953 23.221C25.0016 22.3677 25.2704 22.6798 19.8888 17.2935L15.1071 12.5076L19.8888 7.72164C25.2696 2.33619 24.9999 2.64928 24.997 1.79238C24.9959 1.43193 24.9662 1.29136 24.8344 1.02189C24.5166 0.372525 23.9463 0.017284 23.213 0.0118394C22.3597 0.00557531 22.6718 -0.263314 17.2855 5.11828L12.4996 9.90004L7.71365 5.11828C3.46065 0.868973 2.88986 0.31925 2.58766 0.181322C2.18605 -0.00197675 1.6913 -0.0508604 1.31492 0.0555714Z" fill="black"/>
<path fill-rule="evenodd" clip-rule="evenodd" d="M1.31492 0.0555714C0.508196 0.283656 0.0101093 0.944142 0.00384515 1.79413C-0.00241898 2.64746 -0.271308 2.33531 5.11029 7.72164L9.89205 12.5076L5.11029 17.2935C-0.271308 22.6798 -0.00241898 22.3677 0.00384515 23.221C0.00928968 23.9543 0.36453 24.5246 1.01389 24.8423C1.28337 24.9742 1.42393 25.0039 1.78438 25.005C2.64128 25.0079 2.32819 25.2776 7.71365 19.8968L12.4996 15.1151L17.2855 19.8968C22.6709 25.2776 22.3579 25.0079 23.2148 25.005C23.5752 25.0039 23.7158 24.9742 23.9852 24.8423C24.6346 24.5246 24.9898 23.9543 24.9953 23.221C25.0016 22.3677 25.2704 22.6798 19.8888 17.2935L15.1071 12.5076L19.8888 7.72164C25.2696 2.33619 24.9999 2.64928 24.997 1.79238C24.9959 1.43193 24.9662 1.29136 24.8344 1.02189C24.5166 0.372525 23.9463 0.017284 23.213 0.0118394C22.3597 0.00557531 22.6718 -0.263314 17.2855 5.11828L12.4996 9.90004L7.71365 5.11828C3.46065 0.868973 2.88986 0.31925 2.58766 0.181322C2.18605 -0.00197675 1.6913 -0.0508604 1.31492 0.0555714Z" fill="black"/>
<path fill-rule="evenodd" clip-rule="evenodd" d="M1.31492 0.0555714C0.508196 0.283656 0.0101093 0.944142 0.00384515 1.79413C-0.00241898 2.64746 -0.271308 2.33531 5.11029 7.72164L9.89205 12.5076L5.11029 17.2935C-0.271308 22.6798 -0.00241898 22.3677 0.00384515 23.221C0.00928968 23.9543 0.36453 24.5246 1.01389 24.8423C1.28337 24.9742 1.42393 25.0039 1.78438 25.005C2.64128 25.0079 2.32819 25.2776 7.71365 19.8968L12.4996 15.1151L17.2855 19.8968C22.6709 25.2776 22.3579 25.0079 23.2148 25.005C23.5752 25.0039 23.7158 24.9742 23.9852 24.8423C24.6346 24.5246 24.9898 23.9543 24.9953 23.221C25.0016 22.3677 25.2704 22.6798 19.8888 17.2935L15.1071 12.5076L19.8888 7.72164C25.2696 2.33619 24.9999 2.64928 24.997 1.79238C24.9959 1.43193 24.9662 1.29136 24.8344 1.02189C24.5166 0.372525 23.9463 0.017284 23.213 0.0118394C22.3597 0.00557531 22.6718 -0.263314 17.2855 5.11828L12.4996 9.90004L7.71365 5.11828C3.46065 0.868973 2.88986 0.31925 2.58766 0.181322C2.18605 -0.00197675 1.6913 -0.0508604 1.31492 0.0555714Z" fill="black"/>
<path fill-rule="evenodd" clip-rule="evenodd" d="M1.31492 0.0555714C0.508196 0.283656 0.0101093 0.944142 0.00384515 1.79413C-0.00241898 2.64746 -0.271308 2.33531 5.11029 7.72164L9.89205 12.5076L5.11029 17.2935C-0.271308 22.6798 -0.00241898 22.3677 0.00384515 23.221C0.00928968 23.9543 0.36453 24.5246 1.01389 24.8423C1.28337 24.9742 1.42393 25.0039 1.78438 25.005C2.64128 25.0079 2.32819 25.2776 7.71365 19.8968L12.4996 15.1151L17.2855 19.8968C22.6709 25.2776 22.3579 25.0079 23.2148 25.005C23.5752 25.0039 23.7158 24.9742 23.9852 24.8423C24.6346 24.5246 24.9898 23.9543 24.9953 23.221C25.0016 22.3677 25.2704 22.6798 19.8888 17.2935L15.1071 12.5076L19.8888 7.72164C25.2696 2.33619 24.9999 2.64928 24.997 1.79238C24.9959 1.43193 24.9662 1.29136 24.8344 1.02189C24.5166 0.372525 23.9463 0.017284 23.213 0.0118394C22.3597 0.00557531 22.6718 -0.263314 17.2855 5.11828L12.4996 9.90004L7.71365 5.11828C3.46065 0.868973 2.88986 0.31925 2.58766 0.181322C2.18605 -0.00197675 1.6913 -0.0508604 1.31492 0.0555714Z" fill="black"/>
<path fill-rule="evenodd" clip-rule="evenodd" d="M1.31492 0.0555714C0.508196 0.283656 0.0101093 0.944142 0.00384515 1.79413C-0.00241898 2.64746 -0.271308 2.33531 5.11029 7.72164L9.89205 12.5076L5.11029 17.2935C-0.271308 22.6798 -0.00241898 22.3677 0.00384515 23.221C0.00928968 23.9543 0.36453 24.5246 1.01389 24.8423C1.28337 24.9742 1.42393 25.0039 1.78438 25.005C2.64128 25.0079 2.32819 25.2776 7.71365 19.8968L12.4996 15.1151L17.2855 19.8968C22.6709 25.2776 22.3579 25.0079 23.2148 25.005C23.5752 25.0039 23.7158 24.9742 23.9852 24.8423C24.6346 24.5246 24.9898 23.9543 24.9953 23.221C25.0016 22.3677 25.2704 22.6798 19.8888 17.2935L15.1071 12.5076L19.8888 7.72164C25.2696 2.33619 24.9999 2.64928 24.997 1.79238C24.9959 1.43193 24.9662 1.29136 24.8344 1.02189C24.5166 0.372525 23.9463 0.017284 23.213 0.0118394C22.3597 0.00557531 22.6718 -0.263314 17.2855 5.11828L12.4996 9.90004L7.71365 5.11828C3.46065 0.868973 2.88986 0.31925 2.58766 0.181322C2.18605 -0.00197675 1.6913 -0.0508604 1.31492 0.0555714Z" fill="black"/>
<path fill-rule="evenodd" clip-rule="evenodd" d="M1.31492 0.0555714C0.508196 0.283656 0.0101093 0.944142 0.00384515 1.79413C-0.00241898 2.64746 -0.271308 2.33531 5.11029 7.72164L9.89205 12.5076L5.11029 17.2935C-0.271308 22.6798 -0.00241898 22.3677 0.00384515 23.221C0.00928968 23.9543 0.36453 24.5246 1.01389 24.8423C1.28337 24.9742 1.42393 25.0039 1.78438 25.005C2.64128 25.0079 2.32819 25.2776 7.71365 19.8968L12.4996 15.1151L17.2855 19.8968C22.6709 25.2776 22.3579 25.0079 23.2148 25.005C23.5752 25.0039 23.7158 24.9742 23.9852 24.8423C24.6346 24.5246 24.9898 23.9543 24.9953 23.221C25.0016 22.3677 25.2704 22.6798 19.8888 17.2935L15.1071 12.5076L19.8888 7.72164C25.2696 2.33619 24.9999 2.64928 24.997 1.79238C24.9959 1.43193 24.9662 1.29136 24.8344 1.02189C24.5166 0.372525 23.9463 0.017284 23.213 0.0118394C22.3597 0.00557531 22.6718 -0.263314 17.2855 5.11828L12.4996 9.90004L7.71365 5.11828C3.46065 0.868973 2.88986 0.31925 2.58766 0.181322C2.18605 -0.00197675 1.6913 -0.0508604 1.31492 0.0555714Z" fill="black"/>
<path fill-rule="evenodd" clip-rule="evenodd" d="M1.31492 0.0555714C0.508196 0.283656 0.0101093 0.944142 0.00384515 1.79413C-0.00241898 2.64746 -0.271308 2.33531 5.11029 7.72164L9.89205 12.5076L5.11029 17.2935C-0.271308 22.6798 -0.00241898 22.3677 0.00384515 23.221C0.00928968 23.9543 0.36453 24.5246 1.01389 24.8423C1.28337 24.9742 1.42393 25.0039 1.78438 25.005C2.64128 25.0079 2.32819 25.2776 7.71365 19.8968L12.4996 15.1151L17.2855 19.8968C22.6709 25.2776 22.3579 25.0079 23.2148 25.005C23.5752 25.0039 23.7158 24.9742 23.9852 24.8423C24.6346 24.5246 24.9898 23.9543 24.9953 23.221C25.0016 22.3677 25.2704 22.6798 19.8888 17.2935L15.1071 12.5076L19.8888 7.72164C25.2696 2.33619 24.9999 2.64928 24.997 1.79238C24.9959 1.43193 24.9662 1.29136 24.8344 1.02189C24.5166 0.372525 23.9463 0.017284 23.213 0.0118394C22.3597 0.00557531 22.6718 -0.263314 17.2855 5.11828L12.4996 9.90004L7.71365 5.11828C3.46065 0.868973 2.88986 0.31925 2.58766 0.181322C2.18605 -0.00197675 1.6913 -0.0508604 1.31492 0.0555714Z" fill="black"/>
<path fill-rule="evenodd" clip-rule="evenodd" d="M1.31492 0.0555714C0.508196 0.283656 0.0101093 0.944142 0.00384515 1.79413C-0.00241898 2.64746 -0.271308 2.33531 5.11029 7.72164L9.89205 12.5076L5.11029 17.2935C-0.271308 22.6798 -0.00241898 22.3677 0.00384515 23.221C0.00928968 23.9543 0.36453 24.5246 1.01389 24.8423C1.28337 24.9742 1.42393 25.0039 1.78438 25.005C2.64128 25.0079 2.32819 25.2776 7.71365 19.8968L12.4996 15.1151L17.2855 19.8968C22.6709 25.2776 22.3579 25.0079 23.2148 25.005C23.5752 25.0039 23.7158 24.9742 23.9852 24.8423C24.6346 24.5246 24.9898 23.9543 24.9953 23.221C25.0016 22.3677 25.2704 22.6798 19.8888 17.2935L15.1071 12.5076L19.8888 7.72164C25.2696 2.33619 24.9999 2.64928 24.997 1.79238C24.9959 1.43193 24.9662 1.29136 24.8344 1.02189C24.5166 0.372525 23.9463 0.017284 23.213 0.0118394C22.3597 0.00557531 22.6718 -0.263314 17.2855 5.11828L12.4996 9.90004L7.71365 5.11828C3.46065 0.868973 2.88986 0.31925 2.58766 0.181322C2.18605 -0.00197675 1.6913 -0.0508604 1.31492 0.0555714Z" fill="black"/>
</svg>
