<svg width="35" height="29" viewBox="0 0 35 29" fill="none" xmlns="http://www.w3.org/2000/svg">
<path fill-rule="evenodd" clip-rule="evenodd" d="M16.5489 0.115988C15.8318 0.381779 15.3171 0.851976 14.9671 1.56134C14.7976 1.90467 14.7813 2.00677 14.7813 2.72469C14.7813 3.46328 14.7944 3.53924 14.994 3.96044C15.111 4.20734 15.3286 4.53746 15.4776 4.6941L15.7486 4.97891L13.0608 10.0621C11.5824 12.8577 10.3543 15.1394 10.3315 15.1326C10.3087 15.1257 8.95483 13.808 7.32286 12.2043L4.35557 9.28863L4.49497 8.97357C4.69027 8.53198 4.65072 7.48593 4.42209 7.04625C4.20009 6.61944 3.75515 6.16272 3.35591 5.95202C3.04585 5.78833 2.93841 5.76992 2.29248 5.76992C1.67193 5.76992 1.53336 5.79161 1.27633 5.92875C0.84808 6.15725 0.431396 6.56524 0.200506 6.98199C0.0145076 7.31772 0 7.3958 0 8.0624C0 8.68232 0.0224458 8.8261 0.163416 9.11003C0.518031 9.82425 1.22398 10.3103 2.01238 10.3829L2.4509 10.4233L4.2948 16.7191C5.3089 20.1817 6.14986 23.0265 6.16348 23.0409C6.1771 23.0552 6.30479 23.009 6.44727 22.9382C6.69759 22.8139 7.0713 22.8095 17.4866 22.8095C27.9438 22.8095 28.2755 22.8134 28.5563 22.94C28.7154 23.0117 28.8575 23.0579 28.8721 23.0426C28.8866 23.0273 29.7284 20.1817 30.7425 16.7191L32.5864 10.4233L33.0018 10.3829C33.8187 10.3036 34.494 9.81221 34.8476 9.03988C35.0013 8.70388 35.0156 8.60021 34.9896 8.00519C34.9671 7.49113 34.9263 7.27762 34.806 7.04625C34.584 6.61944 34.139 6.16272 33.7398 5.95202C33.4297 5.78833 33.3223 5.76992 32.6764 5.76992C32.0558 5.76992 31.9172 5.79161 31.6602 5.92875C31.2299 6.15834 30.814 6.56661 30.5873 6.98199C30.4205 7.2874 30.3855 7.44001 30.363 7.95975C30.3407 8.47518 30.3609 8.63702 30.4866 8.95202L30.6368 9.32839L27.6704 12.2471C26.0389 13.8524 24.6913 15.1535 24.6757 15.1386C24.6601 15.1235 23.4398 12.8273 21.964 10.0357L19.2807 4.96009L19.5647 4.61143C19.7208 4.41969 19.9249 4.09374 20.018 3.88722C20.1667 3.55765 20.1875 3.41531 20.1875 2.72469C20.1875 1.9924 20.1735 1.90918 19.9862 1.52713C19.7292 1.00294 19.2056 0.479431 18.6829 0.224042C18.3268 0.0500878 18.1833 0.0213464 17.588 0.00430682C17.046 -0.0110904 16.8288 0.0122449 16.5489 0.115988ZM18.4082 12.7916C18.6341 12.83 19.1114 13.0022 19.4689 13.1743C20.3562 13.6012 21.0954 14.327 21.5108 15.1793C21.6667 15.4993 21.8408 15.9445 21.8976 16.1689C22.0303 16.6925 22.0303 17.7721 21.8976 18.2957C21.5693 19.5918 20.6529 20.7214 19.4689 21.2895C18.7064 21.6554 18.2366 21.763 17.4261 21.7572C15.7293 21.7453 14.162 20.7495 13.4278 19.2168C13.0595 18.4481 12.9679 18.053 12.9679 17.2323C12.9679 16.4116 13.0595 16.0165 13.4278 15.2478C14.088 13.8695 15.477 12.8849 16.989 12.7235C17.4891 12.6701 17.7748 12.6838 18.4082 12.7916ZM16.4651 13.7137C15.3712 14.0079 14.4852 14.8717 14.0998 16.02C13.8728 16.6961 13.8568 17.6782 14.0618 18.3421C14.4076 19.4616 15.376 20.3945 16.4945 20.6859C17.0233 20.8236 18.0395 20.8214 18.5156 20.6816C19.7185 20.3283 20.6489 19.3979 21.0022 18.195C21.067 17.9742 21.1113 17.5695 21.1113 17.1981C21.1113 16.4959 20.9987 16.0292 20.6874 15.441C20.283 14.6771 19.3946 13.9706 18.5156 13.7139C18.0495 13.5778 16.9708 13.5777 16.4651 13.7137ZM6.64853 23.8585C6.54971 23.9677 6.53527 24.1946 6.53527 25.6378V27.2918H5.07459C3.74639 27.2918 3.60364 27.3032 3.50065 27.417C3.3579 27.5747 3.35434 27.967 3.49394 28.1662L3.60042 28.3183H17.4763H31.3523L31.5011 28.16C31.7056 27.9421 31.7039 27.5428 31.4977 27.3984C31.3717 27.31 31.0967 27.2918 29.8896 27.2918H28.4336V25.6259C28.4336 24.0988 28.4232 23.9504 28.3084 23.8466C28.1931 23.7423 27.343 23.7334 17.4725 23.7334C7.18305 23.7334 6.75733 23.7383 6.64853 23.8585Z" fill="url(#paint0_linear_144_2)"/>
<defs>
<linearGradient id="paint0_linear_144_2" x1="31.1366" y1="0.684321" x2="1.64237" y2="29.9733" gradientUnits="userSpaceOnUse">
<stop stop-color="#DFBC77"/>
<stop offset="1" stop-color="#FBE8BE"/>
</linearGradient>
</defs>
</svg>
