<svg width="31" height="35" viewBox="0 0 31 35" fill="none" xmlns="http://www.w3.org/2000/svg">
<path d="M30.2678 32.2713L29.5223 30.0796C28.1227 25.9571 24.3323 23.1475 20.014 22.9631C19.6339 23.2584 19.2333 23.5122 18.818 23.7341C18.1989 25.3597 16.1189 25.8 14.9002 24.5551C13.4584 24.4277 12.1385 23.8582 10.9857 22.9632C6.6674 23.147 2.87808 25.9566 1.47736 30.0797L0.733182 32.2713C0.518048 32.9017 0.621659 33.5964 1.00972 34.1375C1.39654 34.6791 2.02245 35 2.68815 35H28.3118C28.9773 35 29.6033 34.6792 29.9902 34.1375C30.3781 33.5964 30.4817 32.9017 30.2678 32.2713Z" fill="url(#paint0_linear_63_128)"/>
<path d="M18.3527 21.2951C20.8596 19.533 22.613 15.6418 22.613 11.8799C22.613 1.18864 8.38794 1.2 8.38794 11.8799C8.38794 16.452 10.9767 21.208 14.3632 22.1058C14.6897 21.1807 15.5636 20.5116 16.5992 20.5116C17.2956 20.5115 17.9169 20.817 18.3527 21.2951Z" fill="url(#paint1_linear_63_128)"/>
<path d="M5.26656 16.3433C5.61923 17.7287 7.54129 17.3475 7.54129 16.0645C7.54129 10.9222 7.78706 10.4421 7.09864 9.88395C8.67456 0.173005 22.2499 0.245841 23.9022 9.88505C23.2148 10.4449 23.4607 10.9228 23.4607 16.0645C23.4607 16.4667 23.6769 16.8042 23.9875 17.0136C23.9875 21.0139 22.3648 20.78 17.4854 22.0733C16.731 21.2546 15.3837 21.7876 15.3837 22.892C15.3837 24.2752 17.366 24.5988 17.7506 23.2084C21.69 22.1638 25.1526 21.8344 25.1526 17.8972V17.0892C25.4451 16.9378 25.6521 16.6694 25.7352 16.3433C29.5325 16.266 29.5337 10.5752 25.7352 10.4978C25.6567 10.1872 25.4633 9.93341 25.1913 9.77865C25.2892 8.61344 25.0492 7.08178 24.3811 5.6031C19.7351 -3.98379 6.01293 -0.232717 5.79802 9.05836C5.76841 9.373 5.7923 9.59605 5.81047 9.77865C5.53848 9.93341 5.34511 10.1872 5.26656 10.4978C3.67576 10.5285 2.39331 11.8229 2.39331 13.4206C2.39331 15.0182 3.67576 16.3126 5.26656 16.3433Z" fill="url(#paint2_linear_63_128)"/>
<defs>
<linearGradient id="paint0_linear_63_128" x1="32.5" y1="21.7594" x2="27.5731" y2="42.7708" gradientUnits="userSpaceOnUse">
<stop stop-color="#DFBC77"/>
<stop offset="1" stop-color="#FBE8BE"/>
</linearGradient>
<linearGradient id="paint1_linear_63_128" x1="23.6279" y1="2.04171" x2="7.54603" y2="23.6794" gradientUnits="userSpaceOnUse">
<stop stop-color="#DFBC77"/>
<stop offset="1" stop-color="#FBE8BE"/>
</linearGradient>
<linearGradient id="paint2_linear_63_128" x1="30.4522" y1="-2.4104" x2="12.0184" y2="32.145" gradientUnits="userSpaceOnUse">
<stop stop-color="#DFBC77"/>
<stop offset="1" stop-color="#FBE8BE"/>
</linearGradient>
</defs>
</svg>
