<svg width="30" height="30" viewBox="0 0 30 30" fill="none" xmlns="http://www.w3.org/2000/svg">
<path fill-rule="evenodd" clip-rule="evenodd" d="M7.59966 0.0793506C7.08637 0.262459 6.74066 0.594105 6.49339 1.14068C6.38154 1.38777 6.3588 1.55729 6.33882 2.29236L6.31532 3.15428L3.81673 3.17128L1.31813 3.18827L1.01883 3.34618C0.854238 3.43302 0.598999 3.63816 0.451692 3.80199C0.0920376 4.20202 -0.0215775 4.55552 0.0108253 5.1734C0.0514315 5.94726 0.394269 6.45006 1.11036 6.78593L1.43532 6.93833L3.87439 6.95591L6.31345 6.97355L6.33876 7.62975C6.3598 8.17398 6.38951 8.3415 6.51308 8.61098C6.83969 9.32314 7.347 9.66984 8.12221 9.71051C8.8083 9.74654 9.12775 9.6283 9.58257 9.17015C10.0361 8.71322 10.1366 8.42424 10.1366 7.57701V6.96939L19.3507 6.95386L28.5647 6.93833L28.8896 6.78593C29.6057 6.45006 29.9486 5.94726 29.9892 5.1734C30.0252 4.48731 29.907 4.16786 29.4488 3.71304C28.8371 3.10577 29.8112 3.15897 19.3 3.15897H10.1366V2.34538C10.1366 1.27082 10.0622 1.02929 9.58257 0.546878C9.33301 0.295917 9.14316 0.161793 8.93966 0.0927688C8.5922 -0.0250652 7.9115 -0.0318622 7.59966 0.0793506ZM19.3772 10.2162C18.8636 10.3995 18.5172 10.7319 18.2716 11.2776C18.1638 11.5171 18.1369 11.7019 18.1165 12.3437L18.0919 13.1201H9.7805C1.49784 13.1201 1.4679 13.1205 1.14229 13.2423C-0.380763 13.8121 -0.380763 16.1781 1.14229 16.7479C1.4679 16.8697 1.49784 16.8701 9.7805 16.8701H18.0919L18.1157 17.6465C18.1365 18.3262 18.1582 18.4634 18.2896 18.7479C18.619 19.4613 19.125 19.8067 19.8997 19.8474C20.5858 19.8834 20.9053 19.7652 21.3601 19.307C21.8297 18.834 21.9142 18.573 21.9142 17.5958V16.8701H25.2226C28.4331 16.8701 28.5407 16.8665 28.8577 16.7479C30.3808 16.1781 30.3808 13.8121 28.8577 13.2423C28.5407 13.1237 28.4331 13.1201 25.2226 13.1201H21.9142V12.3944C21.9142 11.4169 21.8297 11.156 21.3601 10.6838C21.1106 10.4328 20.9207 10.2987 20.7172 10.2297C20.3697 10.1118 19.689 10.105 19.3772 10.2162ZM9.00594 20.3531C8.49229 20.5363 8.14594 20.8688 7.90031 21.4145C7.7925 21.654 7.7656 21.8388 7.74527 22.4806L7.72066 23.257H4.59487C1.56939 23.257 1.45853 23.2609 1.14229 23.3792C-0.380763 23.949 -0.380763 26.315 1.14229 26.8848C1.45853 27.0031 1.56939 27.007 4.59487 27.007H7.72066L7.74445 27.7834C7.76525 28.4631 7.78693 28.6003 7.9183 28.8848C8.24778 29.5981 8.75369 29.9436 9.52848 29.9843C10.2146 30.0203 10.534 29.9021 10.9888 29.4439C11.4584 28.9709 11.5429 28.7099 11.5429 27.7327V27.007H20.0369C28.5047 27.007 28.532 27.0067 28.8577 26.8848C30.3808 26.315 30.3808 23.949 28.8577 23.3792C28.532 23.2573 28.5047 23.257 20.0369 23.257H11.5429V22.5313C11.5429 21.5538 11.4584 21.2929 10.9888 20.8207C10.7393 20.5697 10.5494 20.4356 10.3459 20.3665C9.99847 20.2487 9.31778 20.2419 9.00594 20.3531Z" fill="url(#paint0_linear_148_10)"/>
<defs>
<linearGradient id="paint0_linear_148_10" x1="29.5714" y1="-6" x2="-2.57143" y2="32.5714" gradientUnits="userSpaceOnUse">
<stop stop-color="#D9D9D9"/>
<stop offset="1" stop-color="#F7F7F7"/>
</linearGradient>
</defs>
</svg>
