<svg width="28" height="31" viewBox="0 0 28 31" fill="none" xmlns="http://www.w3.org/2000/svg">
<path fill-rule="evenodd" clip-rule="evenodd" d="M12.6991 0.0383598C9.88315 0.551602 7.78579 2.40155 7.01006 5.05628C6.35551 7.29631 6.65333 9.44666 7.87587 11.3085C10.0911 14.6821 14.6941 15.6088 18.0797 13.3627C20.2819 11.9016 21.5808 9.21064 21.3009 6.68889C20.9303 3.34995 19.0642 1.05107 16.0389 0.206394C15.4833 0.051317 15.2401 0.0245159 14.2049 0.00446629C13.5485 -0.00821815 12.871 0.00705784 12.6991 0.0383598ZM12.6023 15.7281C9.82812 16.0393 7.30828 17.0779 5.19769 18.7802C4.45871 19.3762 3.19777 20.7087 2.67983 21.441C1.03064 23.7726 0.145121 26.332 0.0398264 29.0713L0 30.1064L0.20943 30.3158L0.418859 30.5253H14.0003H27.5818L27.7909 30.3162L28 30.1071L27.9613 29.1057C27.7859 24.5755 25.4649 20.4615 21.6724 17.9587C20.0619 16.8959 18.0628 16.1245 16.1485 15.8271C15.3234 15.6989 13.3532 15.6439 12.6023 15.7281Z" fill="url(#paint0_linear_3_92)"/>
<defs>
<linearGradient id="paint0_linear_3_92" x1="14" y1="0" x2="14" y2="30.5253" gradientUnits="userSpaceOnUse">
<stop stop-color="#FBE8BE"/>
<stop offset="1" stop-color="#DFBC77"/>
</linearGradient>
</defs>
</svg>
