<svg width="35" height="33" viewBox="0 0 35 33" fill="none" xmlns="http://www.w3.org/2000/svg">
<path fill-rule="evenodd" clip-rule="evenodd" d="M10.7711 0.150504C9.87673 0.436424 8.97961 1.21179 8.56678 2.05564C8.42487 2.34563 7.93754 4.33355 6.96388 8.59376C6.19445 11.9606 5.57763 14.728 5.59317 14.7436C5.60871 14.759 6.00233 14.6496 6.46787 14.5003C10.9617 13.0588 15.8867 12.3492 19.3415 12.6454C22.3783 12.9057 25.5275 13.5335 28.3891 14.4491C28.941 14.6257 29.4049 14.7579 29.42 14.7427C29.4351 14.7276 28.8179 11.9606 28.0485 8.59376C27.0749 4.33355 26.5875 2.34563 26.4456 2.05564C26.3335 1.82642 26.0682 1.44905 25.856 1.21694C25.0766 0.364104 24.225 -0.0019447 23.0247 7.76705e-06C22.1634 0.00141354 21.7487 0.0940387 19.9901 0.678295L18.6386 1.12729H17.5062H16.3738L15.0223 0.678295C14.2789 0.431347 13.453 0.177995 13.1869 0.115204C12.5062 -0.0452893 11.3298 -0.0281076 10.7711 0.150504ZM14.8899 13.8306C12.8607 14.0191 10.1765 14.5365 7.58765 15.2382C4.99462 15.9411 0.914038 17.3696 0.444509 17.739C0.153044 17.9682 0.00348514 18.3074 4.87949e-05 18.7468C-0.00346565 19.2062 0.182878 19.5654 0.555018 19.8162C0.989091 20.1086 1.43043 20.0578 2.70047 19.5689C7.01933 17.9063 11.4272 16.7876 15.2023 16.3964C16.3409 16.2784 18.8621 16.2966 20.1225 16.4319C23.6779 16.8137 28.1336 17.9603 32.3119 19.5689C33.1084 19.8754 33.5174 19.992 33.7958 19.9918C34.5252 19.9913 34.9995 19.5054 35 18.7582C35.0003 18.2914 34.8646 17.9723 34.5654 17.7369C34.152 17.4118 30.5436 16.1151 28.1287 15.4238C25.3002 14.6142 22.3899 14.0433 19.9663 13.8225C18.9639 13.7313 15.9067 13.7362 14.8899 13.8306ZM7.91254 19.9991C4.47729 20.4087 1.9722 23.7398 2.51436 27.1772C2.83956 29.2386 4.06626 30.9203 5.90853 31.83C6.88188 32.3106 7.63881 32.4881 8.71306 32.4874C10.6955 32.4861 12.4106 31.6808 13.6245 30.1813C14.2501 29.4084 14.9289 27.8599 14.9289 27.2055C14.9289 26.9571 15.2184 26.7631 15.9592 26.5148C16.5205 26.3268 16.7293 26.2976 17.5062 26.2987C18.2595 26.2996 18.5066 26.3328 19.0383 26.5043C19.7465 26.7328 20.0835 26.9542 20.0835 27.1911C20.0835 27.8492 20.7808 29.4337 21.4082 30.2016C23.6679 32.9667 27.92 33.2587 30.5192 30.8273C31.8535 29.5791 32.5012 28.0801 32.5012 26.24C32.5012 25.1146 32.33 24.3745 31.8422 23.3894C31.0396 21.7689 29.5735 20.598 27.7832 20.1475C26.9446 19.9365 25.5682 19.934 24.7551 20.142C22.8232 20.636 21.3031 21.9341 20.4975 23.7776C20.3969 24.0079 20.2838 24.1593 20.2242 24.1435C20.1683 24.1287 19.8589 24.0424 19.5368 23.9517C19.0368 23.8109 18.7395 23.7868 17.5062 23.7868C16.2729 23.7868 15.9756 23.8109 15.4756 23.9517C15.1535 24.0424 14.8441 24.1287 14.7882 24.1435C14.7286 24.1593 14.6155 24.0079 14.5149 23.7776C13.7153 21.9479 12.19 20.6322 10.3211 20.1601C9.58144 19.9733 8.65058 19.911 7.91254 19.9991ZM9.77208 22.7004C10.3887 22.8702 10.762 23.081 11.2308 23.5244C12.0465 24.2959 12.4298 25.1615 12.4298 26.2328C12.4298 27.2382 12.1216 28.0169 11.4318 28.7543C10.2664 30.0002 8.4066 30.2815 6.91843 29.4371C6.44999 29.1713 5.71899 28.4288 5.49734 27.9937C4.95213 26.9233 4.95213 25.5567 5.49734 24.4863C5.70063 24.0873 6.4446 23.308 6.84829 23.0715C7.75361 22.5407 8.73813 22.4158 9.77208 22.7004ZM27.2662 22.7004C27.8829 22.8702 28.2561 23.081 28.7249 23.5244C29.5407 24.2959 29.9239 25.1615 29.9239 26.2328C29.9239 27.2382 29.6157 28.0169 28.9259 28.7543C28.208 29.5219 27.3118 29.9107 26.2604 29.9107C25.1839 29.9107 24.3332 29.5443 23.5827 28.7576C22.885 28.0261 22.5826 27.2649 22.5826 26.24C22.5826 25.2125 22.8848 24.4543 23.5881 23.7167C24.5915 22.6646 25.8614 22.3137 27.2662 22.7004Z" fill="url(#paint0_linear_61_37)"/>
<defs>
<linearGradient id="paint0_linear_61_37" x1="30.5" y1="-3.5" x2="-5.74952e-08" y2="40" gradientUnits="userSpaceOnUse">
<stop stop-color="#D9D9D9"/>
<stop offset="1" stop-color="white"/>
</linearGradient>
</defs>
</svg>
