<svg width="13" height="17" viewBox="0 0 13 17" fill="none" xmlns="http://www.w3.org/2000/svg">
<path fill-rule="evenodd" clip-rule="evenodd" d="M5.46833 0.0524882C3.80215 0.33259 2.39537 1.56252 1.88186 3.18807C1.7088 3.73593 1.68444 4.01625 1.6843 5.46328L1.68416 6.79709L1.42161 6.81394C0.877641 6.84886 0.37913 7.20033 0.128102 7.72597L0 7.99419V11.9121V15.83L0.128102 16.0982C0.29705 16.452 0.548042 16.7029 0.901822 16.8719L1.17005 17H6.22252H11.275L11.5432 16.8719C11.897 16.7029 12.148 16.452 12.3169 16.0982L12.445 15.83V11.9121V7.99419L12.3169 7.72597C12.0659 7.20033 11.5674 6.84886 11.0234 6.81394L10.7609 6.79709L10.7607 5.46328C10.7606 4.01625 10.7362 3.73593 10.5632 3.18807C10.1147 1.76827 8.99148 0.645099 7.57169 0.196581C6.96585 0.00522551 6.10165 -0.053986 5.46833 0.0524882ZM6.63026 1.17261C7.90699 1.32841 9.00436 2.2053 9.42004 3.40187C9.58775 3.88467 9.59863 3.99728 9.616 5.4325L9.63263 6.80642H6.22571H2.81875L2.81885 5.62751C2.81889 4.97913 2.83648 4.305 2.85789 4.1295C3.03755 2.65726 4.16423 1.45715 5.60204 1.20644C6.05534 1.12741 6.21642 1.12212 6.63026 1.17261ZM11.1185 8.02103C11.3201 8.15807 11.3104 7.96221 11.3104 11.9263C11.3104 15.3545 11.3066 15.5875 11.2481 15.6734C11.11 15.8767 11.4056 15.8654 6.22252 15.8654C1.03946 15.8654 1.33506 15.8767 1.19689 15.6734C1.13867 15.5878 1.13392 15.3494 1.12406 12.0362C1.11824 10.0861 1.12317 8.42307 1.13498 8.34053C1.1587 8.17484 1.30978 7.99228 1.44511 7.96572C1.48883 7.95718 3.6626 7.95211 6.2757 7.95445C10.7449 7.95849 11.0322 7.96242 11.1185 8.02103Z" fill="#C7C7C7"/>
</svg>
