<svg width="32" height="30" viewBox="0 0 32 30" fill="none" xmlns="http://www.w3.org/2000/svg">
<circle cx="15" cy="15" r="14" stroke="black" stroke-width="2"/>
<path fill-rule="evenodd" clip-rule="evenodd" d="M17.2042 6.82924C16.9415 6.86277 16.7547 6.94969 16.5263 7.14483C16.4181 7.23733 16.319 7.31303 16.3063 7.31303C16.2764 7.31303 15.2176 8.18741 15.0532 8.34793C14.9843 8.41522 14.8106 8.56017 14.6674 8.67005C14.3745 8.89463 13.8117 9.35893 13.1434 9.92728C12.8962 10.1375 12.6304 10.3527 12.5527 10.4053C12.4341 10.4859 12.1589 10.7099 11.9951 10.8593C11.9166 10.9309 11.0237 11.6436 10.0956 12.3753C9.59012 12.7739 9.06405 13.199 8.92653 13.32C8.78901 13.4411 8.65914 13.5401 8.63787 13.5401C8.56633 13.5401 8.29305 13.9666 8.23363 14.1711C8.08872 14.6696 8.25528 15.2438 8.64409 15.5864C8.83286 15.7527 9.55715 16.1201 10.452 16.5035C10.8125 16.6581 11.2895 16.8814 12.2526 17.3467C12.5827 17.5061 12.8908 17.6514 12.9372 17.6694C13.055 17.7151 13.044 17.8115 12.8848 18.1269C12.6702 18.5521 12.0443 19.8843 11.9907 20.0298C11.9641 20.102 11.7948 20.4733 11.6143 20.855C11.3117 21.4952 11.2848 21.5711 11.2679 21.8335C11.2355 22.3373 11.3716 22.6482 11.7628 22.9633C12.0356 23.1831 12.267 23.2635 12.6224 23.2621C12.9694 23.2607 13.218 23.1681 13.4837 22.9411C13.595 22.846 13.6989 22.7682 13.7146 22.7682C13.7454 22.7682 14.8047 21.8983 14.8972 21.7971C14.9903 21.6951 15.5982 21.1926 15.6284 21.1926C15.6439 21.1926 15.8497 21.0281 16.0859 20.8269C17.0491 20.0063 17.397 19.7174 17.4982 19.6543C17.5566 19.6177 17.6832 19.5194 17.7795 19.4358C18.122 19.1384 18.187 19.0852 18.8298 18.5757C21.6337 16.3536 21.552 16.4239 21.7164 16.091C21.8056 15.9103 21.8182 15.8403 21.8182 15.5277C21.8182 15.1996 21.8082 15.1504 21.6942 14.9186C21.5055 14.535 21.2994 14.3763 20.5023 14.0012C20.1326 13.8273 19.6782 13.6199 19.4925 13.5404C19.1512 13.3942 18.6486 13.1587 17.6937 12.6974C17.4058 12.5584 17.1316 12.4299 17.0841 12.4118C17.033 12.3924 16.9979 12.3479 16.9979 12.3025C16.9979 12.2604 17.097 12.0279 17.218 11.7858C17.4136 11.3947 17.7394 10.6938 18.2072 9.65756C18.291 9.47188 18.4456 9.1427 18.5507 8.92607C18.7415 8.53298 18.7419 8.53144 18.742 8.15706C18.7422 7.82155 18.7311 7.75924 18.6367 7.56711C18.5198 7.32898 18.2405 7.05885 17.9806 6.93266C17.7885 6.83936 17.4637 6.79611 17.2042 6.82924Z" fill="black"/>
<circle cx="27" cy="5" r="4.25" fill="#017DF8" stroke="white" stroke-width="1.5"/>
</svg>
