<svg width="35" height="35" viewBox="0 0 35 35" fill="none" xmlns="http://www.w3.org/2000/svg">
<circle cx="17.5" cy="17.5" r="17.5" fill="url(#paint0_linear_210_29)"/>
<path fill-rule="evenodd" clip-rule="evenodd" d="M15.5752 0.0917286C14.5293 0.201066 12.8938 0.575859 11.7561 0.966983C7.43593 2.45213 3.79334 5.68428 1.7873 9.81234C-2.30692 18.2377 0.848838 28.2564 9.04621 32.8578C10.6496 33.7578 12.5312 34.4178 14.5564 34.7907C16.0727 35.0698 18.9389 35.0698 20.4552 34.7907C25.979 33.7738 30.4718 30.4951 33.0299 25.614C34.6301 22.5605 35.2891 18.9591 34.883 15.4863C34.2791 10.3217 31.505 5.8105 27.1192 2.86097C23.9217 0.710478 19.5917 -0.328183 15.5752 0.0917286ZM17.7076 8.48387C17.827 8.54781 18.3564 9.52382 19.1344 11.1141C19.9072 12.694 20.4476 13.6907 20.5745 13.7707C20.7239 13.8648 25.7525 14.6588 26.1861 14.6567C26.3241 14.656 26.5383 14.9588 26.5383 15.1546C26.5383 15.3036 25.9493 15.946 24.4645 17.4163C23.0373 18.8296 22.3904 19.5321 22.3897 19.6697C22.3892 19.7796 22.6011 21.1071 22.8604 22.6194C23.3126 25.2556 23.3253 25.3768 23.1697 25.5489C23.0804 25.6477 22.9283 25.7286 22.8317 25.7286C22.7352 25.7286 21.5502 25.1473 20.1987 24.4368C18.847 23.7264 17.6353 23.1451 17.5058 23.1451C17.3763 23.1451 16.1646 23.7264 14.8129 24.4368C13.4614 25.1473 12.2764 25.7286 12.1798 25.7286C12.0832 25.7286 11.9312 25.6477 11.8419 25.5489C11.6863 25.3768 11.699 25.2556 12.1512 22.6194C12.4105 21.1071 12.6223 19.7809 12.6219 19.6725C12.6211 19.5387 11.9382 18.7967 10.4945 17.3613C8.41734 15.2962 8.3707 15.2416 8.47928 15.0031C8.54039 14.8687 8.64509 14.7378 8.712 14.7121C8.77883 14.6865 10.0486 14.4929 11.5336 14.2821C13.0188 14.0712 14.3252 13.8411 14.437 13.7707C14.564 13.6907 15.104 12.6946 15.8761 11.1164C16.9169 8.98876 17.2604 8.40701 17.4888 8.38496C17.5048 8.38348 17.6033 8.42795 17.7076 8.48387Z" fill="url(#paint1_linear_210_29)"/>
<defs>
<linearGradient id="paint0_linear_210_29" x1="27.5" y1="-1.5" x2="6" y2="31" gradientUnits="userSpaceOnUse">
<stop stop-color="#DFBC77"/>
<stop offset="1" stop-color="#FBE8BE"/>
</linearGradient>
<linearGradient id="paint1_linear_210_29" x1="31.5" y1="-8.00864" x2="4.45818" y2="35.0115" gradientUnits="userSpaceOnUse">
<stop stop-color="#017DF8"/>
<stop offset="1" stop-color="#8A14F5"/>
</linearGradient>
</defs>
</svg>
