<svg width="35" height="17" viewBox="0 0 35 17" fill="none" xmlns="http://www.w3.org/2000/svg">
<path fill-rule="evenodd" clip-rule="evenodd" d="M6.87764 0.14215C5.20517 0.4851 3.83358 1.19683 2.6311 2.34574C1.27235 3.64386 0.40372 5.23277 0.0997302 6.97589C-0.0332434 7.73865 -0.0332434 9.20066 0.0997302 9.96342C0.40252 11.6994 1.27313 13.2962 2.61663 14.5797C3.85588 15.7636 5.33193 16.5139 7.04421 16.8303C7.81996 16.9736 9.39828 16.9731 10.1695 16.8292C11.7318 16.5378 13.1781 15.8955 14.5003 14.9061C15.0192 14.5178 16.0884 13.4799 16.0884 13.3645C16.0884 13.3182 15.9358 13.0316 15.7493 12.7277C15.5629 12.4238 15.1627 11.7689 14.86 11.2723L14.3098 10.3695L13.4833 11.172C11.8217 12.7857 10.3207 13.494 8.57447 13.4886C5.72492 13.4798 3.45449 11.2542 3.45449 8.46966C3.45449 6.53067 4.49823 4.88389 6.3034 3.97488C7.75715 3.24275 9.46343 3.27141 11.0419 4.0545C12.6562 4.85537 14.4257 6.65821 15.6384 8.73779C16.7007 10.5595 16.9474 10.9476 17.5697 11.7769C19.6381 14.5334 22.3136 16.386 24.8673 16.8303C25.6792 16.9715 27.1915 16.9715 27.9558 16.8303C31.5049 16.1744 34.2943 13.4147 34.9002 9.96024C35.0333 9.20157 35.0333 7.7388 34.9003 6.97589C34.3729 3.95194 32.0984 1.36898 29.1105 0.401039C28.2138 0.110529 27.4609 0 26.3788 0C24.436 0 22.7036 0.557586 20.9019 1.76268C20.2249 2.21552 19.1512 3.17796 18.9928 3.4739C18.8959 3.6548 18.9106 3.68225 20.3734 6.0563L20.6912 6.5721L21.4777 5.80602C22.6685 4.6461 23.8357 3.93387 25.0895 3.60193C25.8468 3.40141 26.9242 3.39831 27.6838 3.59438C29.502 4.06388 31.0205 5.58052 31.4356 7.34143C31.5767 7.94044 31.5752 9.00924 31.4324 9.59443C30.9952 11.3861 29.5057 12.876 27.6838 13.3442C27.0749 13.5007 25.9319 13.5368 25.3992 13.4162C23.0867 12.893 20.7479 10.7691 19.0132 7.61676C16.7219 3.45287 13.449 0.685901 10.1327 0.109047C9.26397 -0.0420661 7.69849 -0.0261848 6.87764 0.14215Z" fill="url(#paint0_linear_148_8)"/>
<defs>
<linearGradient id="paint0_linear_148_8" x1="36.5" y1="-4" x2="-3" y2="22" gradientUnits="userSpaceOnUse">
<stop stop-color="#D9D9D9"/>
<stop offset="1" stop-color="#F7F7F7"/>
</linearGradient>
</defs>
</svg>
