<svg width="35" height="34" viewBox="0 0 35 34" fill="none" xmlns="http://www.w3.org/2000/svg">
<path fill-rule="evenodd" clip-rule="evenodd" d="M27.561 0.0305375C27.4694 0.0484263 26.9732 0.510267 26.4584 1.05689C24.7712 2.84809 23.0217 4.14565 20.8832 5.19199C19.2995 5.96688 18.2257 6.33889 16.3138 6.77522L16.0999 6.82407V9.2175V11.6109L16.5471 11.8282C17.2713 12.18 18.6595 13.1419 19.3026 13.7374C21.2588 15.5488 22.566 17.8843 23.1029 20.5276C23.1922 20.967 23.2892 21.3472 23.3186 21.3723C23.348 21.3975 23.5995 21.5877 23.8776 21.7951C24.7643 22.4563 25.8472 23.4312 26.4377 24.0999C27.3065 25.0839 27.4275 25.1765 27.8435 25.1765C28.2673 25.1765 28.5204 25.0192 28.6691 24.6633C28.8359 24.264 28.8307 0.876598 28.6637 0.476979C28.5029 0.0922153 28.0932 -0.0736839 27.561 0.0305375ZM9.13882 7.13082C4.55082 7.16792 4.14529 7.18184 3.95917 7.30831C3.67023 7.50469 3.57775 7.76463 3.57775 8.38031V8.92109H2.26526C0.70645 8.92109 0.527641 8.94987 0.228665 9.24885L0 9.47751V12.5721C0 15.5851 0.0042776 15.6722 0.161232 15.8717C0.24982 15.9844 0.366564 16.0766 0.42062 16.0766C0.474597 16.0766 0.747517 15.7704 1.02705 15.396C2.43513 13.5109 4.59539 11.95 6.91066 11.1451C8.37622 10.6356 9.0864 10.5245 10.8888 10.5226C12.4505 10.521 13.039 10.5902 14.2138 10.9133L14.3888 10.9614V9.00797C14.3888 7.19242 14.3791 7.05569 14.2527 7.07249C14.1779 7.08244 11.8766 7.10865 9.13882 7.13082ZM32.8998 7.92321C32.4078 8.13562 31.9733 8.3408 31.9342 8.37914C31.8631 8.44891 32.2464 9.46554 32.3437 9.46554C32.3931 9.46554 34.3117 8.67929 34.3706 8.63495C34.4348 8.58658 33.9613 7.52134 33.8791 7.52912C33.8324 7.53347 33.3917 7.71088 32.8998 7.92321ZM32.7442 12.5265V13.0986L33.2692 13.1481C33.5579 13.1754 34.0654 13.198 34.397 13.1983L34.9997 13.1988V12.6246C34.9997 11.9305 35.0512 11.957 33.697 11.9555L32.7442 11.9544V12.5265ZM9.06532 12.7022C5.94622 13.2652 3.17308 15.3245 1.73249 18.1474C0.944293 19.6918 0.60814 21.0886 0.602229 22.8432C0.59624 24.6364 0.911783 25.9823 1.70947 27.5662C3.1765 30.4792 5.87871 32.4954 9.10297 33.0827C10.1763 33.2781 11.9295 33.2594 12.9681 33.0412C15.0441 32.6052 16.7676 31.6754 18.2401 30.1974C19.113 29.3211 19.6499 28.5816 20.1785 27.5275C20.9372 26.0144 21.2581 24.615 21.2529 22.8432C21.2476 21.0697 20.919 19.7072 20.118 18.1377C18.6664 15.2933 15.886 13.2468 12.7258 12.6969C11.8587 12.5459 9.91504 12.5487 9.06532 12.7022ZM31.8946 16.1271C31.7616 16.4115 31.664 16.6556 31.678 16.6696C31.7372 16.7288 33.7002 17.6354 33.7219 17.6136C33.7352 17.6004 33.8525 17.3521 33.9827 17.062L34.2195 16.5342L33.2402 16.0721C32.7016 15.8179 32.233 15.6099 32.1988 15.6099C32.1646 15.6099 32.0277 15.8426 31.8946 16.1271ZM12.7166 16.3088C13.016 16.4045 13.4873 16.585 13.7638 16.7101L14.2666 16.9375L9.61886 21.5821C4.42342 26.7738 4.97004 26.3475 4.60208 25.4946C4.22882 24.6294 4.10127 23.9616 4.10306 22.8821C4.10508 21.6588 4.26336 20.9686 4.78478 19.9094C5.72674 17.9958 7.40688 16.6759 9.51573 16.1926C10.2594 16.0221 12.0188 16.0861 12.7166 16.3088ZM17.148 20.1309C17.6077 21.1551 17.6946 21.609 17.6903 22.9599C17.6865 24.1102 17.6696 24.2543 17.4672 24.8654C16.6253 27.4063 14.7625 29.0983 12.2267 29.6249C10.8669 29.9073 9.17973 29.6965 7.99472 29.096L7.59844 28.8952L12.2183 24.2748C14.7593 21.7336 16.8598 19.6543 16.8862 19.6543C16.9126 19.6543 17.0304 19.8688 17.148 20.1309Z" fill="url(#paint0_linear_148_25)"/>
<defs>
<linearGradient id="paint0_linear_148_25" x1="29.3998" y1="-0.583331" x2="-0.544438" y2="32.4331" gradientUnits="userSpaceOnUse">
<stop stop-color="#D9D9D9"/>
<stop offset="1" stop-color="#F7F7F7"/>
</linearGradient>
</defs>
</svg>
