<svg width="18" height="10" viewBox="0 0 18 10" fill="none" xmlns="http://www.w3.org/2000/svg">
<path fill-rule="evenodd" clip-rule="evenodd" d="M0.03823 1.60775C0.0639552 1.67682 0.124988 1.80046 0.173828 1.88251C0.223046 1.96519 1.99774 3.7644 4.15454 5.91825C7.31503 9.07434 8.08198 9.82312 8.23537 9.90239C8.40771 9.99145 8.45587 10 8.7849 10C9.12713 10 9.15611 9.99426 9.35251 9.88769C9.52437 9.79444 10.221 9.11325 13.4623 5.8692C16.6336 2.69518 17.3834 1.92761 17.4627 1.77412C17.5518 1.60177 17.5603 1.55362 17.5603 1.22458C17.5603 0.91128 17.5493 0.84142 17.476 0.69222C17.3586 0.45286 17.1343 0.22453 16.9002 0.10589C16.72 0.0146003 16.6699 0.00529957 16.3582 0.00529957C15.7563 0.00529957 16.1015 -0.2931 12.2109 3.59068L8.7849 7.01076L5.35888 3.59068C1.4683 -0.2931 1.81351 0.00529957 1.21159 0.00529957C0.916528 0.00529957 0.843954 0.0171796 0.696404 0.0895796C0.457664 0.20674 0.228748 0.43115 0.111387 0.66309C0.0275827 0.82874 0.0104783 0.90791 0.00175444 1.17076C-0.00497739 1.37337 0.007765 1.52604 0.03823 1.60775Z" fill="#7F7F7F"/>
</svg>
