<svg width="35" height="35" viewBox="0 0 35 35" fill="none" xmlns="http://www.w3.org/2000/svg">
<path fill-rule="evenodd" clip-rule="evenodd" d="M15.5752 0.0916297C14.5293 0.200849 12.8938 0.575238 11.7561 0.96594C7.43593 2.44948 3.79334 5.67814 1.7873 9.80176C-2.30692 18.218 0.848838 28.226 9.04621 32.8224C10.6496 33.7214 12.5312 34.3807 14.5564 34.7531C16.0727 35.032 18.9389 35.032 20.4552 34.7531C25.979 33.7374 30.4718 30.4622 33.0299 25.5863C34.6301 22.5362 35.2891 18.9387 34.883 15.4696C34.2791 10.3105 31.505 5.80423 27.1192 2.85788C23.9217 0.709711 19.5917 -0.327829 15.5752 0.0916297ZM17.7076 8.47472C17.827 8.53859 18.3564 9.51355 19.1344 11.1021C19.9072 12.6803 20.4476 13.676 20.5745 13.7559C20.7239 13.8499 25.7525 14.643 26.1861 14.6409C26.3241 14.6402 26.5383 14.9426 26.5383 15.1382C26.5383 15.2871 25.9493 15.9288 24.4645 17.3975C23.0373 18.8093 22.3904 19.5111 22.3897 19.6485C22.3892 19.7583 22.6011 21.0843 22.8604 22.595C23.3126 25.2284 23.3253 25.3494 23.1697 25.5214C23.0804 25.6201 22.9283 25.7008 22.8317 25.7008C22.7352 25.7008 21.5502 25.1202 20.1987 24.4105C18.847 23.7008 17.6353 23.1201 17.5058 23.1201C17.3763 23.1201 16.1646 23.7008 14.8129 24.4105C13.4614 25.1202 12.2764 25.7008 12.1798 25.7008C12.0832 25.7008 11.9312 25.6201 11.8419 25.5214C11.6863 25.3494 11.699 25.2284 12.1512 22.595C12.4105 21.0843 12.6223 19.7595 12.6219 19.6512C12.6211 19.5176 11.9382 18.7764 10.4945 17.3426C8.41734 15.2797 8.3707 15.2251 8.47928 14.9869C8.54039 14.8527 8.64509 14.7219 8.712 14.6963C8.77883 14.6707 10.0486 14.4773 11.5336 14.2667C13.0188 14.0561 14.3252 13.8262 14.437 13.7559C14.564 13.676 15.104 12.6809 15.8761 11.1044C16.9169 8.97906 17.2604 8.39794 17.4888 8.37591C17.5048 8.37444 17.6033 8.41886 17.7076 8.47472Z" fill="#017DF8"/>
</svg>
