<svg width="35" height="35" viewBox="0 0 35 35" fill="none" xmlns="http://www.w3.org/2000/svg">
<path fill-rule="evenodd" clip-rule="evenodd" d="M15.2772 0.0985141C11.3444 0.631542 7.93198 2.31198 5.15561 5.08288C4.62703 5.61037 3.99268 6.30344 3.74589 6.62304C1.7032 9.26828 0.507593 12.1225 0.100558 15.3257C-0.0345275 16.3887 -0.0332969 18.5768 0.102951 19.6776C0.73285 24.7653 3.58059 29.3289 7.89397 32.1627C10.157 33.6496 12.6366 34.5554 15.3771 34.8963C16.4187 35.0258 18.6076 35.0221 19.6838 34.8888C24.7983 34.2557 29.3683 31.3896 32.216 27.0295C33.9275 24.409 35 20.9924 35 18.1614V17.4928H32.7782H30.5564V18.048C30.5564 19.1895 30.1906 20.9583 29.6904 22.2355C28.2149 26.0033 25.0106 28.938 21.1629 30.0454C18.4545 30.825 15.5187 30.7215 12.9323 29.7552C10.3401 28.7867 8.07445 26.9785 6.56198 24.6709C5.5018 23.0533 4.83225 21.278 4.54772 19.3299C4.40977 18.3851 4.4097 16.6015 4.54759 15.6557C5.24811 10.8508 8.48183 6.87167 13.0554 5.18679C15.4863 4.29123 18.3864 4.1796 20.9845 4.88148C22.7956 5.37076 24.6198 6.35874 26.1031 7.65382L26.743 8.21241L25.975 8.98259L25.207 9.75277L25.3302 10.085C25.398 10.2677 25.4624 10.4291 25.4734 10.4436C25.4843 10.4581 26.994 10.5724 28.8281 10.6976L32.1629 10.9251L32.3777 10.7053L32.5925 10.4856L32.3648 7.17985C32.2396 5.36173 32.1186 3.85549 32.0957 3.83265C32.0728 3.80975 31.9097 3.73626 31.7332 3.66926L31.4123 3.54744L30.6465 4.31106L29.8807 5.07474L29.3956 4.61712C26.7983 2.16691 23.317 0.546567 19.6838 0.0967367C18.6357 -0.0330168 16.2408 -0.0320597 15.2772 0.0985141ZM18.7663 12.3614C18.7462 12.4577 18.5296 13.9362 18.2851 15.647C18.0406 17.3578 17.8247 18.8267 17.8052 18.9113L17.7699 19.0651H19.9246H22.0793V20.8768V22.6884H23.139H24.1986V20.8768V19.0651H24.7113H25.2241V18.0397V17.0142H24.7113H24.1986V15.5103V14.0063H23.139H22.0793V15.5103V17.0142H21.151H20.2227L20.2603 16.8263C20.3604 16.3257 20.8539 12.6819 20.8349 12.5834C20.8175 12.4926 20.616 12.4427 19.8081 12.3285L18.803 12.1864L18.7663 12.3614ZM13.1204 12.3904C12.5703 12.5088 12.0163 12.8135 11.6001 13.2264C10.9294 13.8918 10.6655 14.6174 10.6637 15.8008L10.6627 16.4673H11.7223H12.7819V15.8841C12.7819 15.5461 12.8212 15.2069 12.8752 15.0776C12.9959 14.7886 13.34 14.5018 13.6315 14.4471C13.9657 14.3844 14.4288 14.6073 14.6255 14.9255C14.761 15.1448 14.7775 15.2437 14.7498 15.6691C14.6848 16.6632 14.2172 17.2788 12.91 18.0914C11.2595 19.1172 10.667 20.145 10.6638 21.9877L10.6627 22.6884H13.7732H16.8837V21.6288V20.5691H15.0273H13.1709L13.2959 20.431C13.3646 20.3552 13.7001 20.1182 14.0414 19.9045C15.2736 19.1331 15.7513 18.6981 16.2279 17.9136C16.8038 16.9655 17.0412 15.5384 16.7822 14.5816C16.4882 13.4955 15.6138 12.6687 14.4752 12.4003C13.9704 12.2812 13.6384 12.2788 13.1204 12.3904Z" fill="#017DF8"/>
</svg>
