<svg width="35" height="32" viewBox="0 0 35 32" fill="none" xmlns="http://www.w3.org/2000/svg">
<path fill-rule="evenodd" clip-rule="evenodd" d="M10.0549 0.0254693C9.92324 0.0405109 9.47712 0.0872084 9.06347 0.12912C6.51522 0.387631 4.02972 1.11407 2.37528 2.08405C-0.153835 3.56675 -0.684258 5.25169 0.884858 6.81882C2.37945 8.3115 5.19183 9.40639 8.74104 9.87733C9.84379 10.0236 13.2201 10.0459 14.2939 9.91391C18.0652 9.45042 21.067 8.29803 22.5227 6.75503C23.1096 6.13285 23.3405 5.64051 23.3405 5.01109C23.3405 4.33182 23.1075 3.86464 22.4357 3.19631C20.9489 1.71731 18.3111 0.675541 14.8066 0.183201C13.8957 0.0552106 10.7161 -0.0503543 10.0549 0.0254693ZM0.00430694 11.186C0.00430694 12.1563 0.0695329 12.4407 0.403526 12.9261C1.55086 14.5937 4.64417 15.9697 8.43193 16.4975C9.40581 16.6331 11.758 16.7587 12.2868 16.7032L12.707 16.659L12.9292 16.1493C13.2101 15.505 13.9208 14.3183 14.4024 13.6895C14.6059 13.4237 14.7725 13.1921 14.7725 13.1749C14.7725 13.1577 14.534 13.1652 14.2426 13.1915C11.3005 13.4575 8.28746 13.2508 5.47502 12.59C3.8644 12.2115 1.62361 11.3258 0.551276 10.6438C0.344453 10.5122 0.13681 10.3815 0.0897708 10.3532C0.0231774 10.3131 0.00430694 10.4968 0.00430694 11.186ZM23.6949 11.724C22.7638 11.8432 21.5746 12.2069 20.6436 12.657C17.0188 14.4097 14.8013 18.1413 14.9979 22.1578C15.2863 28.0498 20.567 32.434 26.3801 31.6076C27.5103 31.447 28.1412 31.262 29.2329 30.7709C31.2367 29.8697 32.975 28.1776 34.0101 26.1207C34.2902 25.5641 34.6867 24.4133 34.8404 23.7106C34.9942 23.0074 35.0534 21.0533 34.9437 20.2962C34.4657 16.9961 32.4497 14.2004 29.466 12.6996C28.5668 12.2473 27.6895 11.9655 26.6007 11.7791C26.0671 11.6878 24.2473 11.6533 23.6949 11.724ZM0.00430694 17.9223C0.00430694 18.8095 0.0101868 18.8462 0.22077 19.2675C0.501228 19.8289 1.17072 20.5071 1.93593 21.0053C4.08148 22.4019 7.84237 23.3645 11.1672 23.368L11.8351 23.3687L11.7853 23.1807C11.7196 22.933 11.7157 20.6103 11.7804 20.2511L11.8308 19.9709L10.5155 19.9302C7.18799 19.8272 3.98699 19.0764 1.45835 17.8058C1.11117 17.6314 0.658892 17.381 0.453163 17.2494C0.247503 17.1178 0.062354 17.0102 0.0417743 17.0102C0.0211946 17.0102 0.00430694 17.4206 0.00430694 17.9223ZM0.00430694 24.5184C0.00430694 25.7422 0.156022 26.114 0.983176 26.918C3.11957 28.9944 8.04051 30.2598 12.9569 29.997C13.707 29.957 14.3606 29.9018 14.4093 29.8745C14.4742 29.8382 14.3901 29.6693 14.0966 29.2462C13.6502 28.6027 13.1082 27.6426 12.8539 27.0448L12.6871 26.6529L11.6997 26.6517C8.95846 26.6485 6.12133 26.2087 3.76055 25.421C2.68548 25.0623 1.22582 24.4051 0.549908 23.9752C0.343838 23.8442 0.13681 23.7139 0.0897708 23.6856C0.0231774 23.6455 0.00430694 23.8291 0.00430694 24.5184Z" fill="url(#paint0_linear_3_133)"/>
<defs>
<linearGradient id="paint0_linear_3_133" x1="17.5" y1="0" x2="17.5" y2="31.7079" gradientUnits="userSpaceOnUse">
<stop stop-color="#FBE8BE"/>
<stop offset="1" stop-color="#DFBC77"/>
</linearGradient>
</defs>
</svg>
