<svg width="25" height="22" viewBox="0 0 25 22" fill="none" xmlns="http://www.w3.org/2000/svg">
<path fill-rule="evenodd" clip-rule="evenodd" d="M7.24723 0.03002C5.86473 0.183146 4.51487 0.889407 3.65571 1.90917C3.07396 2.59968 2.60915 3.5168 2.44934 4.28934L2.38294 4.61032L1.50101 4.62924C0.737362 4.64567 0.592847 4.66368 0.422839 4.7635C-0.119362 5.08205 -0.143949 5.90048 0.377518 6.27244C0.549679 6.39526 0.625534 6.40563 1.47246 6.42223L2.38249 6.44007L2.45466 6.79045C2.78907 8.41366 4.08982 9.96713 5.66294 10.622C6.46982 10.9579 6.87606 11.0372 7.81373 11.0418C8.52719 11.0454 8.74524 11.025 9.17334 10.9147C11.0753 10.4249 12.5469 9.03681 13.1322 7.18038C13.2138 6.92171 13.2805 6.64803 13.2805 6.57224V6.43435L18.8564 6.41934C24.3777 6.40455 24.4339 6.40325 24.5923 6.28813C24.8376 6.1098 25.0258 5.69115 24.9807 5.42399C24.9301 5.1251 24.7655 4.87199 24.5423 4.75013C24.3668 4.65428 24.0257 4.64731 18.8279 4.63298L13.3001 4.61774L13.2397 4.29262C13.0104 3.05991 12.0471 1.66399 10.9057 0.910367C9.87337 0.228806 8.47994 -0.106508 7.24723 0.03002ZM8.56673 1.87739C9.90221 2.15271 10.9358 3.06756 11.3969 4.38241C11.5319 4.76741 11.5495 4.90065 11.5484 5.5263C11.5473 6.14447 11.5275 6.29357 11.3923 6.69981C11.0254 7.80223 10.1644 8.66864 9.02237 9.08474C8.64695 9.22149 8.53302 9.23588 7.84206 9.23367C7.15483 9.23146 7.03422 9.21554 6.65308 9.07698C6.05955 8.86125 5.66923 8.61647 5.23688 8.18887C4.06829 7.03309 3.79048 5.38558 4.51085 3.88344C4.6983 3.49249 4.83353 3.31014 5.22968 2.91392C5.6259 2.51777 5.80825 2.38254 6.1992 2.19509C7.00839 1.80703 7.74553 1.70812 8.56673 1.87739ZM16.3396 10.4889C14.9956 10.735 14.0395 11.2216 13.1662 12.1041C12.5349 12.7421 11.9982 13.6912 11.7796 14.5558L11.6491 15.0719L6.09581 15.1002C0.597492 15.1283 0.540898 15.1297 0.386016 15.2454C0.0967022 15.4614 0 15.645 0 15.9783C0 16.3249 0.10673 16.5155 0.42029 16.7289L0.607576 16.8564H6.15093H11.6943V16.9951C11.6943 17.2105 11.9697 18.0318 12.1891 18.4709C12.7706 19.6345 13.8782 20.6518 15.065 21.1126C16.024 21.4851 17.1761 21.5986 18.1405 21.4156C20.2679 21.0121 21.9826 19.4074 22.4791 17.3554L22.5995 16.8578L23.4834 16.8571C24.3061 16.8564 24.3802 16.8475 24.5545 16.7289C24.8681 16.5155 24.9748 16.3249 24.9748 15.9783C24.9748 15.6317 24.8681 15.4411 24.5545 15.2277C24.3799 15.1088 24.307 15.1002 23.4756 15.1002H22.584L22.5457 14.8448C22.3575 13.5896 21.3476 12.1125 20.1473 11.3366C19.2092 10.7303 18.4762 10.5102 17.3027 10.4825C16.8509 10.4718 16.4175 10.4747 16.3396 10.4889ZM18.0675 12.3623C18.555 12.4844 19.2176 12.847 19.6219 13.2129C21.173 14.6165 21.2831 16.9742 19.8688 18.5018C18.3747 20.1156 15.92 20.1182 14.4009 18.5074C13.3149 17.3559 13.0879 15.6575 13.8297 14.2335C14.133 13.6511 14.8624 12.9335 15.4332 12.6559C16.3282 12.2208 17.141 12.1302 18.0675 12.3623Z" fill="url(#paint0_linear_210_25)"/>
<path fill-rule="evenodd" clip-rule="evenodd" d="M7.24721 0.03002C5.86472 0.183146 4.51485 0.889407 3.65569 1.90917C3.07395 2.59968 2.60913 3.5168 2.44932 4.28934L2.38293 4.61032L1.50099 4.62924C0.737344 4.64567 0.592829 4.66368 0.422821 4.7635C-0.11938 5.08205 -0.143967 5.90048 0.377501 6.27244C0.549661 6.39526 0.625516 6.40563 1.47335 6.42223L2.38428 6.44007L2.45515 6.79669C2.68736 7.96476 3.52823 9.23146 4.58464 10.0044C4.93015 10.2572 5.71822 10.6711 5.93717 10.7147C6.0034 10.7279 6.89626 10.7399 7.92135 10.7414L9.78521 10.7441L10.244 10.5158C10.68 10.2989 10.8948 10.1782 10.9578 10.1148C10.9734 10.0992 11.092 10.0146 11.2213 9.9269C11.7516 9.56729 12.4422 8.7271 12.8129 7.99059C13.0085 7.60186 13.2805 6.77686 13.2805 6.57224V6.43435L18.8564 6.41934C24.3777 6.40455 24.4339 6.40325 24.5923 6.28813C24.8376 6.1098 25.0258 5.69115 24.9807 5.42399C24.9301 5.1251 24.7655 4.87199 24.5422 4.75013C24.3668 4.65428 24.0257 4.64731 18.8279 4.63298L13.3001 4.61774L13.2396 4.29262C13.0104 3.05991 12.0471 1.66399 10.9057 0.910367C9.87336 0.228806 8.47993 -0.106508 7.24721 0.03002ZM8.56671 1.87739C9.90219 2.15271 10.9358 3.06756 11.3969 4.38241C11.5319 4.76741 11.5495 4.90065 11.5484 5.5263C11.5473 6.14447 11.5274 6.29357 11.3923 6.69981C11.0254 7.80223 10.1644 8.66864 9.02235 9.08474C8.64693 9.22149 8.53301 9.23588 7.84204 9.23367C7.15482 9.23146 7.03421 9.21554 6.65306 9.07698C6.05954 8.86125 5.66922 8.61647 5.23686 8.18887C4.06827 7.03309 3.79046 5.38558 4.51083 3.88344C4.69828 3.49249 4.83351 3.31014 5.22966 2.91392C5.62588 2.51777 5.80824 2.38254 6.19918 2.19509C7.00837 1.80703 7.74551 1.70812 8.56671 1.87739ZM16.2263 10.5119C16.0861 10.5379 15.8694 10.5978 15.7448 10.6447C15.5344 10.724 15.6375 10.7301 17.1894 10.7301C18.1085 10.7301 18.8096 10.7096 18.7472 10.6846C18.6849 10.6595 18.6137 10.6508 18.589 10.6651C18.5643 10.6795 18.512 10.6647 18.473 10.6323C18.3023 10.4906 16.7794 10.409 16.2263 10.5119ZM19.0022 10.7948C19.0489 10.825 19.1126 10.8497 19.1438 10.8497C19.175 10.8497 19.1622 10.825 19.1155 10.7948C19.0687 10.7646 19.005 10.7399 18.9738 10.7399C18.9427 10.7399 18.9554 10.7646 19.0022 10.7948ZM7.60128 11.0589C7.64025 11.0746 7.70399 11.0746 7.7429 11.0589C7.78188 11.0432 7.74999 11.0303 7.67209 11.0303C7.5942 11.0303 7.56236 11.0432 7.60128 11.0589ZM13.1033 12.1402C13.0329 12.2301 13.0348 12.2321 13.1247 12.1616C13.1792 12.1189 13.2238 12.0742 13.2238 12.0625C13.2238 12.0159 13.1773 12.0459 13.1033 12.1402Z" fill="url(#paint1_linear_210_25)"/>
<defs>
<linearGradient id="paint0_linear_210_25" x1="25" y1="-5" x2="-0.499999" y2="21.5" gradientUnits="userSpaceOnUse">
<stop stop-color="#017DF8"/>
<stop offset="1" stop-color="#8A14F5"/>
</linearGradient>
<linearGradient id="paint1_linear_210_25" x1="25" y1="-2.83966" x2="12.8019" y2="19.4798" gradientUnits="userSpaceOnUse">
<stop stop-color="#017DF8"/>
<stop offset="1" stop-color="#8A14F5"/>
</linearGradient>
</defs>
</svg>
