<svg width="10" height="18" viewBox="0 0 10 18" fill="none" xmlns="http://www.w3.org/2000/svg">
<g clip-path="url(#clip0_181_15)">
<path fill-rule="evenodd" clip-rule="evenodd" d="M1.60775 17.9618C1.67682 17.936 1.80046 17.875 1.88251 17.8262C1.96519 17.777 3.7644 16.0023 5.91825 13.8455C9.07434 10.685 9.82312 9.91802 9.90239 9.76463C9.99145 9.59229 10 9.54413 10 9.2151C10 8.87287 9.99426 8.84389 9.88769 8.64749C9.79444 8.47563 9.11325 7.779 5.8692 4.5377C2.69518 1.3664 1.92761 0.6166 1.77412 0.5373C1.60177 0.4482 1.55362 0.439699 1.22458 0.439699C0.91128 0.439699 0.84142 0.4507 0.69222 0.524C0.45286 0.6414 0.22453 0.8657 0.10589 1.0998C0.0146003 1.28 0.00529957 1.3301 0.00529957 1.6418C0.00529957 2.2437 -0.2931 1.8985 3.59068 5.7891L7.01076 9.2151L3.59068 12.6411C-0.2931 16.5317 0.00529957 16.1865 0.00529957 16.7884C0.00529957 17.0835 0.0171796 17.156 0.0895796 17.3036C0.20674 17.5423 0.43115 17.7713 0.66309 17.8886C0.82874 17.9724 0.90791 17.9895 1.17076 17.9982C1.37337 18.005 1.52604 17.9922 1.60775 17.9618Z" fill="#7F7F7F"/>
</g>
<defs>
<clipPath id="clip0_181_15">
<rect width="10" height="18" fill="white" transform="matrix(-1 0 0 -1 10 18)"/>
</clipPath>
</defs>
</svg>
