<svg width="20" height="17" viewBox="0 0 20 17" fill="none" xmlns="http://www.w3.org/2000/svg">
<path fill-rule="evenodd" clip-rule="evenodd" d="M18.2048 0.116785C17.9741 0.229617 17.1215 1.20542 12.6164 6.51313C9.69255 9.95788 7.28309 12.7763 7.26212 12.7763C7.2411 12.7763 6.0542 11.4258 4.62458 9.77518C1.73938 6.44402 1.7945 6.49511 1.15422 6.55754C0.739221 6.59799 0.420518 6.80248 0.190965 7.17563C-0.0235932 7.52427 -0.0618423 8.04956 0.0990615 8.43612C0.236887 8.76718 6.35504 15.7931 6.74497 16.0681C6.94483 16.209 7.0567 16.2413 7.34495 16.241C7.761 16.2406 7.98956 16.112 8.35208 15.6743C8.48123 15.5184 11.1328 12.3804 14.2445 8.70104C19.8296 2.09711 19.9031 2.00683 19.968 1.67054C20.0845 1.06669 19.8754 0.444131 19.4642 0.170776C19.1575 -0.0330901 18.5632 -0.0586055 18.2048 0.116785Z" fill="white"/>
</svg>
