<svg width="25" height="35" viewBox="0 0 25 35" fill="none" xmlns="http://www.w3.org/2000/svg">
<path fill-rule="evenodd" clip-rule="evenodd" d="M16.1864 0.14321C15.9818 0.255977 8.06451 9.8025 0.327337 19.2657C0.0472183 19.6084 0 19.7223 0 20.0563C0 20.5323 0.221362 20.8678 0.624722 21.0031C0.848948 21.0783 1.88006 21.0385 5.67291 20.808C8.29438 20.6488 10.454 20.5332 10.4719 20.5512C10.4899 20.5691 9.65741 23.5661 8.62188 27.2111C6.61506 34.2757 6.61956 34.2551 7.00214 34.6624C7.36687 35.0506 8.0488 35.115 8.43972 34.7982C8.7074 34.5813 24.1957 15.7113 24.376 15.3824C24.6621 14.8606 24.3768 14.1596 23.8152 14.0045C23.6238 13.9517 22.0642 14.0179 18.7845 14.2183C16.1703 14.378 14.0165 14.4938 13.9982 14.4756C13.98 14.4573 14.812 11.4599 15.8472 7.81451C17.8277 0.840273 17.8419 0.776606 17.499 0.391495C17.321 0.191656 16.8977 0 16.6342 0C16.5307 0 16.3292 0.0644853 16.1864 0.14321Z" fill="url(#paint0_linear_148_12)"/>
<defs>
<linearGradient id="paint0_linear_148_12" x1="35" y1="-2" x2="-8" y2="30" gradientUnits="userSpaceOnUse">
<stop stop-color="#D9D9D9"/>
<stop offset="1" stop-color="#F7F7F7"/>
</linearGradient>
</defs>
</svg>
